<?xml version="1.0" encoding="utf-8"?>
<!-- Generator: Adobe Illustrator 24.3.0, SVG Export Plug-In . SVG Version: 6.00 Build 0)  -->
<svg version="1.1" id="Layer_1" xmlns="http://www.w3.org/2000/svg" xmlns:xlink="http://www.w3.org/1999/xlink" x="0px" y="0px"
	 viewBox="0 0 196.5 390.3" style="enable-background:new 0 0 196.5 390.3;" xml:space="preserve">
<style type="text/css">
	.st0{fill:#455A64;}
	.st1{fill:#263238;}
	.st2{fill:#FFBE9D;}
	.st3{fill:#EB996E;}
	.st4{fill:#0061F2;}
	.st5{fill:#FFFFFF;}
	.st6{opacity:0.3;}
</style>
<g id="freepik--Character--inject-115">
	<path class="st0" d="M47.3,341.3l-6.5,25.8l-11.1,19c-0.8,1.3-0.3,3,1,3.7c0.1,0,0.1,0.1,0.2,0.1l0,0c0.8,0.4,1.7,0.4,2.5,0
		l25-15.5l7.2-25.8L47.3,341.3z"/>
	<path class="st1" d="M33.4,389.9l25-15.5l1.1-3.8l-28.8,19.3C31.5,390.3,32.6,390.4,33.4,389.9z"/>
	<path class="st0" d="M128.2,347l-1.3,20.2c0,0,20.1,6.7,20.2,10.4l-39.3,0.3l0.8-31.6L128.2,347z"/>
	<path class="st1" d="M107.8,377.9l0.1-3.2l38,1c0.8,0.4,1.4,1.2,1.5,2.1H107.8z"/>
	<polygon class="st1" points="126.5,173.1 64.8,170 39.3,363.6 63.7,366.7 95.8,206.6 105.2,360.6 105.5,366.1 131,366.7 	"/>
	<path class="st0" d="M121.3,362.1c-0.1,0-2.4-35.1-5.1-78.5s-4.7-78.5-4.6-78.5s2.4,35.1,5.1,78.5S121.4,362.1,121.3,362.1z"/>
	<path class="st0" d="M79,203.8c0.1,0-5.9,35.4-13.4,79s-13.8,78.9-13.9,78.8s5.9-35.4,13.4-79S78.9,203.8,79,203.8z"/>
	<path class="st2" d="M13.6,101.6L2.4,85.2c-2.2-3.7-2.9-5.4-2.2-5.8c1-0.5,0.6-0.4,5.6,5.8c0,0-7.1-8.8-4-8.1
		c1.2,0.7,2.3,1.7,3.1,2.8c-1.7-2.4-2-3.8-1.4-4.2c1-0.9,5.4,4.2,7.4,6.6c-1.6-2-4.8-5.9-5.2-6.9c-0.6-1.5,1.2-0.9,2.6,0
		c1.6,1,9.8,8.2,12.3,10.1c0.7,0.7,1.9,0.7,2.6,0c0.1-0.1,0.1-0.1,0.2-0.2c2.1-4.1,5.9-6.1,7.2-6.2c0.8,0,1.4,0.7,1.3,1.5
		c0,0.5-0.3,0.9-0.6,1.1c-1.1,1.1-2.1,2.3-2.9,3.7c-0.7,1-1.2,2.2-1.5,3.4c-0.2,0.8-0.3,1.6-0.5,2.2l4.5,8.1l-14.9,9.5L13.6,101.6z"
		/>
	<path class="st3" d="M8.2,88.9c-0.2,0.1-1.8-1.7-3.6-4.1s-3.2-4.4-3-4.5s1.8,1.7,3.6,4.1S8.4,88.7,8.2,88.9z"/>
	<path class="st3" d="M11.7,87.4c-0.2,0.1-2-1.7-4.1-4.1s-3.7-4.5-3.6-4.6c0.1-0.1,2,1.7,4.1,4.1S11.9,87.3,11.7,87.4z"/>
	<path class="st3" d="M14.6,86.1c-0.2,0.1-1.9-1.6-4-3.8S7,78.1,7.2,77.9s2,1.6,4,3.8S14.7,85.9,14.6,86.1z"/>
	<path class="st3" d="M14.6,94.8c0,0,0.4-0.4,1.3-0.6c1.2-0.2,2.5,0.1,3.4,1l-0.4,0.2c-0.1-0.6-0.2-1.1-0.2-1.7
		c-0.1-1.6,0.3-3.2,1.1-4.6c0.3-0.6,0.7-1.1,1.2-1.5c0.1,0.1-0.4,0.6-0.9,1.7c-0.6,1.4-0.9,2.9-0.9,4.4c0,0.6,0.1,1.1,0.2,1.6
		l0.2,0.8l-0.6-0.6c-0.8-0.7-1.9-1.1-3-1C15.1,94.6,14.6,94.9,14.6,94.8z"/>
	<path class="st2" d="M77.1,25.9l4,45.9l10.7,6.3l12-5.8c0.1-2.7,0.2-15.5,0.2-15.5s9.6-1.5,9.7-11.1c0-4.7-0.6-14.2-1.3-22.9
		c-0.8-9.6-9.1-16.8-18.7-16.2l0,0c-9.8,0.6-17.2,9-16.6,18.7C77.1,25.6,77.1,25.8,77.1,25.9z"/>
	<path class="st3" d="M104,56.8c-4.4,0.1-8.8-1.1-12.5-3.5c0,0,2.9,6.9,12.5,6L104,56.8z"/>
	<path class="st1" d="M109,29.9c0,0.7-0.6,1.3-1.3,1.4c-0.7,0.1-1.4-0.5-1.4-1.2c0,0,0,0,0,0c0-0.7,0.6-1.4,1.3-1.4
		C108.3,28.6,109,29.1,109,29.9C109,29.9,109,29.9,109,29.9z"/>
	<path class="st1" d="M110.4,27.8c-0.2,0.2-1.2-0.6-2.7-0.6s-2.6,0.7-2.7,0.6s0.1-0.4,0.6-0.8c0.6-0.4,1.4-0.7,2.2-0.7
		c0.8,0,1.5,0.2,2.1,0.7C110.3,27.4,110.4,27.7,110.4,27.8z"/>
	<path class="st1" d="M94.7,29.9c0,0.7-0.6,1.4-1.3,1.4c-0.7,0.1-1.3-0.5-1.4-1.2c0,0,0,0,0,0c0-0.7,0.6-1.4,1.3-1.4
		C94,28.6,94.6,29.1,94.7,29.9C94.7,29.9,94.7,29.9,94.7,29.9z"/>
	<path class="st1" d="M95.9,28.1c-0.2,0.2-1.2-0.6-2.7-0.6s-2.6,0.7-2.7,0.6s0.1-0.4,0.6-0.7c0.6-0.4,1.4-0.7,2.2-0.7
		c0.8,0,1.5,0.2,2.1,0.7C95.8,27.7,96,28,95.9,28.1z"/>
	<path class="st1" d="M101.2,39c0.8-0.2,1.6-0.4,2.4-0.4c0.4,0,0.7-0.1,0.8-0.4c0-0.4-0.1-0.8-0.2-1.1c-0.4-0.9-0.7-1.9-1.1-2.8
		c-1.5-4.1-2.7-7.4-2.5-7.5s1.6,3.2,3.1,7.3c0.4,1,0.7,2,1.1,2.9c0.2,0.5,0.3,1,0.2,1.5c-0.1,0.3-0.3,0.5-0.6,0.6
		c-0.2,0.1-0.4,0.1-0.6,0.1C102.9,39.1,102.1,39.1,101.2,39z"/>
	<path class="st1" d="M96.9,40c0.2,0,0.2,1.6,1.6,2.7s3.1,1,3.1,1.2s-0.4,0.3-1.1,0.3c-0.9,0-1.8-0.3-2.6-0.9
		c-0.7-0.6-1.1-1.4-1.2-2.3C96.6,40.4,96.8,40,96.9,40z"/>
	<path class="st1" d="M96.3,22.3c-0.1,0.4-1.6,0.2-3.3,0.4s-3.1,0.7-3.4,0.3c-0.1-0.2,0.1-0.6,0.7-0.9c1.5-1,3.4-1.2,5.1-0.6
		C96,21.8,96.4,22.1,96.3,22.3z"/>
	<path class="st1" d="M109.8,23.5c-0.2,0.3-1.3,0-2.5,0s-2.2,0.2-2.5-0.1c-0.1-0.2,0.1-0.5,0.5-0.8c0.6-0.4,1.3-0.6,2-0.5
		c0.7,0,1.4,0.2,2,0.7C109.8,23,109.9,23.4,109.8,23.5z"/>
	<path class="st1" d="M70.4,13.7c-0.1-1.8,1.2-3.7,3-3.8c-1-2.2,0.1-4.8,2.3-5.8c1.3-0.6,2.8-0.5,4,0.3c0.8-3.1,3.9-4.9,7-4.1
		c1.2,0.3,2.3,1,3.1,2.1c2.2-2.6,6-2.9,8.6-0.7c0.7,0.6,1.3,1.4,1.7,2.3c2.8-2.4,7-2,9.4,0.8c0.2,0.2,0.3,0.4,0.4,0.6
		c1-0.4,2.2-0.6,3.3-0.5c1.5,0,2.8,0.9,3.4,2.2c0.4,1.1,0,2.4-1,3.1c1.6-0.6,3.5,0.2,4.1,1.9c0.6,1.6-0.2,3.5-1.9,4.1
		c-0.2,0.1-0.4,0.1-0.7,0.2c0.6,0.3,1,1,1,1.7c-0.3,1.2-1.1,2.1-2.2,2.5c-2.7,1.2-5.9,0.8-8.7-0.1s-5.4-2.4-8.2-3.4
		s-7.5-2.8-10.3-1.9c-0.4,0.1-0.8,0.3-1.1,0.6c-1.5,1.2-2.5,2.9-2.8,4.8v0.2c-0.4,2.7-0.3,5.5-0.7,8.2c-0.3,2.8-1.4,5.4-3.4,7.4
		c-0.8,0.8-2.3,1.3-3,0.4c-0.2-0.4-0.3-0.8-0.3-1.2c-0.4-4.8-1.4-9.1-1.9-13.8c-0.7-1.2-1.6-2.2-2.6-3.2
		C71.4,17.1,70.6,15.5,70.4,13.7z"/>
	<path class="st0" d="M98.9,8.9C99,8.5,99.1,8,99,7.6c-0.1-1.2-0.7-2.3-1.5-3.1c-1.4-1.2-3.3-1.6-5-1c-1.1,0.3-1.9,1.1-2.4,2.1
		c-0.2,0.6-0.2,1.2-0.1,1.8c0.2,0.6,0.6,1.1,1.2,1.4c0.6,0.3,1.3,0.2,1.9-0.2c0.5-0.4,0.8-1,0.7-1.7c-0.1-0.6-0.3-1.1-0.8-1.5
		c-0.4-0.4-0.9-0.6-1.4-0.8C89.9,4,88,4.3,86.6,5.3c-0.6,0.4-1,1-1.2,1.6c-0.2,0.5-0.2,1-0.1,1.5c0.2,0.8,0.7,1.1,0.7,1.1
		c-0.2-0.3-0.4-0.7-0.5-1.1c-0.1-0.5,0-0.9,0.2-1.4c0.3-0.6,0.7-1.1,1.2-1.4c1.4-0.9,3.1-1.1,4.7-0.7c0.9,0.2,1.6,0.9,1.8,1.8
		c0.1,0.4-0.1,0.9-0.4,1.2c-0.4,0.2-0.9,0.3-1.3,0.1c-0.9-0.4-1.2-1.5-0.8-2.4c0.4-0.9,1.1-1.5,2-1.8c1.5-0.6,3.3-0.3,4.6,0.8
		c0.8,0.7,1.4,1.7,1.6,2.8C98.9,8.4,98.8,8.8,98.9,8.9z"/>
	<path class="st0" d="M87.3,2.7c-0.3-0.1-0.6-0.2-0.9-0.2c-0.8-0.1-1.6-0.1-2.4,0.1c-1.2,0.2-2.4,0.8-3.2,1.6
		c-1.1,1.2-1.3,2.9-0.5,4.3c0.1,0.2,0.3,0.4,0.5,0.6l0.3-0.5c-0.8-0.3-1.6-0.2-2.3,0.3c-0.6,0.4-1.1,1-1.2,1.7
		c-0.2,1.2,0,2.4,0.7,3.3c0.5,0.6,1,1.1,1.6,1.5c0.4,0.3,0.7,0.4,0.7,0.4s-0.2-0.2-0.6-0.6c-0.6-0.5-1-1-1.4-1.6
		c-0.6-0.9-0.8-1.9-0.6-2.9c0.1-0.6,0.5-1.1,1-1.4c0.5-0.4,1.2-0.4,1.7-0.2l1.6,0.6l-1.3-1.2c-0.2-0.1-0.3-0.3-0.4-0.5
		c-0.4-0.6-0.5-1.3-0.4-1.9c0.1-0.6,0.4-1.2,0.8-1.7C82,3.8,83,3.3,84.1,3.1C86,2.7,87.3,2.9,87.3,2.7z"/>
	<path class="st0" d="M73.4,12.9c-0.1,0-0.2,0.3-0.2,0.9c0,1.6,1.2,3,2.9,3.2c0.6,0.1,0.9-0.1,0.9-0.1s-1.4-0.1-2.5-1.3
		S73.6,12.9,73.4,12.9z"/>
	<path class="st0" d="M114.3,7.9c-0.2-0.3-0.5-0.6-0.9-0.7c-2.4-1.3-5.4-0.9-7.4,1c-0.7,0.7-1.1,1.6-1.1,2.6
		c0.1,1.2,1.1,2.1,2.3,2.1c0.6-0.1,1.1-0.4,1.4-1c0.2-0.5,0.2-1.1,0.1-1.6c-0.3-1-1.1-1.7-2.1-2c-0.8-0.3-1.7-0.3-2.6,0
		c-0.7,0.3-1.3,0.6-1.9,1.2c-0.8,0.7-1.4,1.6-1.9,2.5c-0.2,0.3-0.4,0.6-0.5,1c0.3-0.3,0.5-0.6,0.7-0.9c0.6-0.9,1.2-1.6,2-2.3
		c1.1-1,2.6-1.4,4-1c0.8,0.2,1.4,0.8,1.7,1.6c0.2,0.8-0.1,1.8-0.9,1.9c-0.8,0-1.5-0.7-1.6-1.5c0-0.8,0.3-1.6,0.9-2.2
		c1-1.1,2.4-1.7,3.9-1.7c1,0,2,0.2,2.9,0.6C113.9,7.7,114.2,7.9,114.3,7.9z"/>
	<path class="st2" d="M80.3,30.2c-0.2-0.1-6.6-1.9-6.4,4.6s6.7,5,6.7,4.8S80.3,30.2,80.3,30.2z"/>
	<path class="st3" d="M78.6,37.2c0,0-0.1,0.1-0.3,0.2c-0.3,0.1-0.6,0.1-0.8,0c-0.9-0.5-1.4-1.4-1.4-2.4c0-0.6,0.1-1.1,0.3-1.6
		c0.1-0.4,0.4-0.8,0.8-0.9c0.3-0.1,0.6,0,0.7,0.3c0.1,0.2,0,0.3,0.1,0.3s0.1-0.1,0.1-0.4c0-0.2-0.1-0.3-0.3-0.4
		c-0.2-0.1-0.4-0.2-0.6-0.2c-0.5,0.1-1,0.5-1.2,1c-0.3,0.6-0.4,1.2-0.3,1.8c0,1.2,0.7,2.3,1.8,2.8c0.3,0.1,0.7,0,1-0.2
		C78.6,37.4,78.7,37.2,78.6,37.2z"/>
	<path class="st4" d="M60.9,114c0,1.6,4.7,33.2,4.7,33.2l-9.4,51.5l36.5,1.9l4.3-31.5l4.8,31.6l31.6-3.1l-7.2-40l0.1-45.8L125.9,75
		l-13.5-4.6l-7-8.1l-11.3,7l-13.9-8.3l-4.4,6L56.2,77.1C54.4,80.4,60.9,114,60.9,114z"/>
	<path class="st5" d="M80.3,60.9l-0.4,10L99,121.9l7.8-50.2l-2.5-9.6l0,0l-10.1,7.1L80.3,60.9z"/>
	<path class="st1" d="M98.6,123.8c-0.2-0.2-0.3-0.4-0.5-0.6l-1.2-1.6l-4.4-6.1L77.9,95.2c-0.8-1.1-1.6-2.3-2.4-3.4l-0.1-0.2l0.1-0.2
		l3.8-5.5l0.1,0.4l-8.5-6.3L70.7,80l0.1-0.1l3.6-9.5l1-2.6c0.1-0.3,0.2-0.6,0.4-0.9c-0.1,0.3-0.1,0.6-0.3,0.9
		c-0.2,0.7-0.5,1.5-0.9,2.6c-0.8,2.3-2,5.6-3.4,9.5l-0.1-0.2l8.5,6.2l0.2,0.1l-0.1,0.2c-1.2,1.8-2.5,3.6-3.8,5.5v-0.3l2.4,3.4
		c5.6,7.9,10.7,15.1,14.4,20.4l4.3,6.2l1.1,1.7C98.3,123.4,98.5,123.6,98.6,123.8z"/>
	<path class="st1" d="M96.9,177.1c0-0.2,0-0.4,0-0.5c0-0.4,0-1,0-1.6c0-1.5,0.1-3.4,0.2-5.8c0.2-5,0.4-11.8,0.6-19.3
		s0.4-14.2,0.6-19.2c0.1-2.4,0.1-4.4,0.1-5.8c0-0.6,0.1-1.2,0.1-1.6c0-0.2,0-0.4,0.1-0.6c0,0.2,0.1,0.4,0.1,0.6c0,0.4,0,1,0,1.6
		c0,1.4,0,3.4,0,5.8c0,4.9-0.2,11.8-0.4,19.3s-0.6,14.3-0.8,19.3c-0.1,2.4-0.2,4.4-0.3,5.8c-0.1,0.6-0.1,1.2-0.1,1.6
		C97,176.7,96.9,176.9,96.9,177.1z"/>
	<path class="st1" d="M99.4,122.4c0-0.2,0.1-0.4,0.2-0.6c0.2-0.4,0.4-1,0.6-1.6c0.6-1.5,1.4-3.5,2.4-5.9c2.1-5.1,5-11.9,8.2-19.5
		l2-4.6v0.3c-1.6-1.9-3.1-3.6-4.5-5.3l-0.1-0.2l0.2-0.2c2.4-2.5,4.6-4.8,6.5-6.7v0.2c-0.9-2.5-1.6-4.5-2.1-6
		c-0.2-0.7-0.4-1.2-0.5-1.6c-0.1-0.2-0.1-0.4-0.1-0.6c0.1,0.2,0.2,0.4,0.2,0.5l0.6,1.6c0.6,1.5,1.3,3.5,2.2,6l0.1,0.1l-0.1,0.1
		l-6.4,6.8v-0.3l4.5,5.3l0.1,0.1l-0.1,0.1l-2,4.6c-3.2,7.6-6.2,14.4-8.4,19.5l-2.6,5.9l-0.7,1.6C99.6,122,99.5,122.2,99.4,122.4z"/>
	<g class="st6">
		<polygon points="71,79.9 76.7,86.2 72.8,93.2 96.9,121.9 75.7,91.7 79.5,86.2 		"/>
	</g>
	<g class="st6">
		<polygon points="99.9,121 113.4,94.6 113,90.1 		"/>
	</g>
	<path class="st1" d="M57.6,80.5c0,0,0.3,0.1,0.7,0.5c0.6,0.5,1.2,1,1.8,1.6c1.8,1.9,3.3,4.1,4.4,6.5c1.1,2.4,1.7,5,1.8,7.6
		c0.1,0.8,0.1,1.6,0,2.4c0,0.3-0.1,0.6-0.2,0.9c-0.1,0,0-1.2-0.2-3.2c-0.2-2.6-0.9-5.1-1.9-7.4c-1-2.4-2.5-4.5-4.2-6.4
		C58.5,81.3,57.5,80.6,57.6,80.5z"/>
	<path class="st1" d="M128.1,106.3c-0.1,0-0.7-5.8-1.2-13s-0.8-13-0.6-13s0.7,5.8,1.2,13C128,100.5,128.3,106.2,128.1,106.3z"/>
	<path class="st1" d="M106.7,71.9c-0.2,0.2-0.4,0.4-0.6,0.6c-0.4,0.4-1,1-1.7,1.7c-2.1,2-4.3,3.8-6.7,5.5L97.3,80v-0.4
		c0-1.9-0.3-3.9-0.9-5.7c-0.4-1-0.8-1.9-1.4-2.8c-0.3-0.5-0.6-0.9-0.9-1.4L94,69.5L94,69.4l0,0l0,0l0.3,0.1l0,0
		c-0.1,0.1-0.2,0.2-0.2,0.3c-0.2,0.2-0.3,0.4-0.4,0.7c-0.7,1.6-1.1,3.2-1.3,4.9c-0.3,1.6-0.6,3.2-0.8,4.7l-0.1,0.4l-0.4-0.3L83,73.6
		l-2.3-1.9c-0.3-0.2-0.5-0.4-0.8-0.7c0.3,0.2,0.6,0.4,0.9,0.6c0.6,0.4,1.4,1.1,2.4,1.8l8.3,6.3L91,79.9c0.2-1.5,0.4-3.1,0.7-4.7
		c0.2-1.7,0.7-3.4,1.4-5c0.1-0.3,0.3-0.5,0.5-0.8c0.1-0.1,0.2-0.3,0.3-0.4H94l0,0c-0.1,0,0.7,0.1,0.4,0.1l0,0l0,0l0.1,0.1l0.1,0.2
		c0.4,0.4,0.7,0.9,1,1.4c0.6,0.9,1.1,1.9,1.4,2.9c0.6,1.9,0.9,3.9,0.8,5.9l-0.4-0.2c2.4-1.6,4.7-3.3,6.8-5.3l1.8-1.6
		C106.2,72.3,106.5,72.1,106.7,71.9z"/>
	<path class="st1" d="M98.5,121.4c-0.1,0-1.3-11.6-2.5-25.9s-2.1-26-1.9-26s1.2,11.6,2.5,25.9S98.7,121.4,98.5,121.4z"/>
	<g class="st6">
		<path d="M64.8,110c0,0-0.9,25.1-0.9,25.2l-2.2-14.9L64.8,110z"/>
	</g>
	<path class="st2" d="M168.6,112.3l-11.5-8.6l3-5.6l6.7-9.7c0.5-0.8,1.3-1.3,2.3-1.4l5.9-1l0.3,1.8c0,0,2.2-1.5,3,0.4
		s-1.9,3.7-1.9,3.7c1.1-0.3,2.3,0.4,2.7,1.5c0,0.1,0,0.2,0.1,0.2c0.3,1.1-0.3,2.3-1.5,2.6c-0.1,0-0.2,0-0.3,0.1c1.7,2.3,0,3.7,0,3.7
		c2,2.3-0.8,4.5-0.8,4.5l-7.6,7.7L168.6,112.3z"/>
	<polygon class="st4" points="195.7,27.5 196.5,28.2 169.3,108.3 166.5,107 	"/>
	<path class="st2" d="M177.9,102.9c-1,1.5-2.3,2.8-3.8,3.8c-0.4,0.3-0.9,0.5-1.4,0.7c-0.5,0.1-1.1,0-1.4-0.4
		c-0.2-0.3-0.3-0.7-0.3-1.1c0.1-0.8,0.4-1.5,1-2.1c0.5-0.6,1.2-1,1.8-1.5"/>
	<path class="st3" d="M173.8,102.3c0.1,0.1-0.6,0.5-1.5,1.4c-0.5,0.5-0.9,1.2-1,1.9c-0.1,0.4,0,0.8,0.2,1.1c0.2,0.3,0.6,0.5,1,0.4
		c0.8-0.2,1.6-0.7,2.3-1.3c0.6-0.4,1.2-0.9,1.7-1.4c0.9-0.9,1.3-1.6,1.4-1.6c-0.2,0.7-0.6,1.3-1.1,1.8c-0.5,0.6-1.1,1.1-1.7,1.6
		c-0.4,0.3-0.7,0.5-1.1,0.8c-0.4,0.3-0.9,0.5-1.4,0.6c-0.6,0.1-1.2-0.2-1.5-0.6c-0.3-0.4-0.3-1-0.2-1.5c0.2-0.8,0.6-1.5,1.2-2
		C172.5,103,173.1,102.6,173.8,102.3z"/>
	<path class="st4" d="M125.9,74.9c3,1,7.7,9.8,7.7,9.8l12.3,36.3c0,0,11-17.8,11-18.1s14.2,10.4,14.2,10.4l-9.3,18.2l-0.5,4.7
		l-9,14.6c-2.3,2.5-6.3,3-9.7,2.8l0,0c-4.3-0.3-8-2.9-9.6-6.8l-6.6-18.4L125.9,74.9z"/>
	<path class="st4" d="M51.1,84.4L40.9,117L30.1,95.6l-16.3,10.4L29,139.5c2.2,5.1,8.6,10.3,13.2,10.3l0,0c6.8,0,12.8-4.2,15.2-10.6
		l10.8-26.4l-12-35.6l0,0C53.8,79,52,81.5,51.1,84.4z"/>
	<path class="st1" d="M40.9,136c-0.2-3.2-0.3-6.5-0.2-9.8c-0.1-3.3,0.1-6.5,0.3-9.7c0.2,3.2,0.3,6.5,0.2,9.8
		C41.3,129.5,41.2,132.8,40.9,136z"/>
	<path class="st1" d="M45.8,130.3c-0.3-0.7-0.5-1.4-0.7-2.1c-0.4-1.3-0.8-3.2-1.4-5.2s-1.1-3.9-1.6-5.2c-0.1-0.5-0.6-0.9-1.1-0.9
		c-0.4,0-0.5,0.2-0.5,0.2s0-0.3,0.5-0.4c0.3,0,0.5,0,0.8,0.1c0.3,0.2,0.5,0.5,0.7,0.8c0.6,1.3,1.1,3.1,1.7,5.2s1,3.9,1.3,5.3
		C45.7,128.8,45.8,129.5,45.8,130.3z"/>
	<path class="st1" d="M28.6,138.2c0.1,0.2,0.2,0.4,0.3,0.6c0.2,0.4,0.5,0.9,0.9,1.6c1.1,1.9,2.5,3.7,4.1,5.2c1.1,1,2.3,1.9,3.7,2.7
		c1.6,0.8,3.3,1.2,5,1.3c1.9,0.1,3.9-0.3,5.6-1c1.9-0.8,3.6-2,5.1-3.5c0.9-0.9,1.7-1.9,2.4-3l0,0c2.9-7.2,5.6-13.4,7.7-17.9
		c1-2.2,1.8-4,2.4-5.3c0.3-0.6,0.5-1,0.7-1.4c0.1-0.2,0.2-0.3,0.3-0.5c0,0.2-0.1,0.4-0.2,0.5c-0.2,0.4-0.3,0.9-0.6,1.4l-2.3,5.3
		c-1.9,4.5-4.6,10.8-7.5,18l0,0l0,0c-0.7,1.1-1.5,2.2-2.4,3.1c-1.5,1.5-3.3,2.7-5.3,3.6c-1.9,0.8-3.8,1.1-5.8,1
		c-1.8-0.1-3.6-0.5-5.2-1.4c-1.4-0.7-2.6-1.7-3.8-2.8c-1.6-1.6-2.9-3.4-4-5.4c-0.4-0.7-0.6-1.3-0.8-1.6
		C28.7,138.6,28.7,138.4,28.6,138.2z"/>
	<path class="st2" d="M169,87l5.9-1c0,0,1.1,1.7-3.3,4.1l-2.8,1.7c0,0,2,3.8-1.1,9.4"/>
	<path class="st3" d="M167.8,101.2c-0.1,0,0.4-1,1-2.6c0.3-1,0.5-2,0.5-3c0.1-1.3-0.2-2.5-0.6-3.7l-0.1-0.2l0.2-0.1l2.2-1.3
		c1-0.5,1.9-1.1,2.8-1.8c0.4-0.3,0.7-0.7,0.9-1.1c0.2-0.3,0.3-0.8,0.1-1.1l0.2,0.1c-1.8,0.3-3.3,0.5-4.3,0.6
		c-0.5,0.1-1.1,0.1-1.6,0.1c0.5-0.2,1.1-0.3,1.6-0.4c1-0.2,2.5-0.5,4.3-0.8h0.1l0.1,0.1c0.2,0.5,0.2,1.1-0.1,1.6
		c-0.3,0.5-0.6,0.9-1,1.3c-0.9,0.7-1.8,1.4-2.8,1.9l-2.2,1.3l0.1-0.3c0.5,1.2,0.7,2.6,0.6,3.9c-0.1,1.1-0.3,2.1-0.6,3.1
		c-0.1,0.4-0.3,0.7-0.4,1.1c-0.1,0.3-0.3,0.5-0.4,0.8C168.2,100.8,168,101,167.8,101.2z"/>
	<path class="st1" d="M170.1,112.8c-0.3-0.2-0.7-0.4-1-0.7l-2.8-2l-9.6-7.1l0.3-0.1l-6.4,10.7l-3,5c-1,1.5-1.9,3.1-2.7,4.7
		c-1.3,2.8-2.1,5.7-2.4,8.8c-0.2,2.1-0.1,4.1,0.1,6.2c0.2,1.4,0.4,2.2,0.3,2.2c-0.1-0.2-0.1-0.4-0.2-0.6c-0.1-0.4-0.2-0.9-0.4-1.7
		c-0.4-2.1-0.5-4.1-0.3-6.2c0.2-3.1,1-6.1,2.3-8.9c0.8-1.6,1.7-3.2,2.7-4.8l3-5l6.5-10.6l0.1-0.2l0.2,0.1l9.5,7.2l2.7,2.1
		C169.6,112.2,169.9,112.5,170.1,112.8z"/>
	<path class="st1" d="M145.9,121.1c-3.9,2.7-6.7,6.9-7.6,11.5c-0.1-0.7,0-1.4,0.2-2.1c0.4-1.7,1.1-3.3,2-4.7c1-1.4,2.1-2.7,3.5-3.7
		C144.6,121.7,145.3,121.4,145.9,121.1z"/>
	<path class="st1" d="M126.3,90.2c0,0.2,0.1,0.5,0.1,0.7c0,0.5,0.1,1.1,0.1,2c0.1,1.7,0.1,4.2,0.2,7.2c0.1,6.1,0.1,14.5,0.1,23.8
		s-0.1,17.7-0.2,23.8c-0.1,3-0.1,5.5-0.1,7.2c0,0.8-0.1,1.5-0.1,2c0,0.2,0,0.5-0.1,0.7c0-0.2,0-0.5,0-0.7c0-0.5,0-1.1,0-2
		c0-1.8,0-4.2,0-7.2c0-6.1,0-14.5,0-23.8s0.1-17.7,0.1-23.8v-9.2C126.3,90.7,126.3,90.5,126.3,90.2z"/>
	<path class="st2" d="M176.6,87.4c-1.1,0.5-6.3,3.9-6.8,5c-0.2,0.4-0.3,0.7-0.3,1.1c0,0.4,0.2,0.8,0.5,1c0.5,0.3,1.2,0.3,1.7,0
		c2.2-0.9,4.2-2.1,6-3.7c0.5-0.5,0.8-1.1,0.8-1.8c0.1-0.7-0.3-1.3-1-1.6"/>
	<path class="st3" d="M177.5,87.4c0,0,0.4,0,0.8,0.5c0.5,0.8,0.4,1.8-0.2,2.6c-0.4,0.5-0.8,0.9-1.3,1.3c-0.5,0.4-1.1,0.8-1.6,1.2
		c-0.6,0.4-1.3,0.8-2,1.1l-1.1,0.5c-0.4,0.2-0.8,0.3-1.2,0.4c-0.5,0.1-1,0-1.4-0.4c-0.3-0.4-0.5-0.8-0.4-1.3c0-0.4,0.2-0.8,0.4-1.2
		c0.2-0.3,0.5-0.6,0.8-0.8c1-0.8,2-1.6,3.1-2.2c0.9-0.7,2-1.2,3.1-1.6c-0.2,0.2-0.5,0.4-0.8,0.5c-0.5,0.3-1.2,0.8-2.1,1.4
		c-1,0.7-2,1.5-3,2.3c-0.3,0.2-0.5,0.5-0.7,0.7c-0.2,0.3-0.3,0.6-0.3,0.9c0,0.3,0.1,0.6,0.3,0.9c0.3,0.2,0.6,0.3,0.9,0.2
		c2.6-0.9,5-2.3,6.9-4.2c0.5-0.6,0.6-1.5,0.3-2.2C177.9,87.5,177.5,87.4,177.5,87.4z"/>
	<path class="st2" d="M173.5,98.1c-0.8,0.3-1.5,0.7-2.2,1.2c-0.7,0.5-1.2,1.1-1.6,1.9c-0.3,0.5-0.2,1.1,0.1,1.6
		c0.3,0.3,0.6,0.4,1,0.4c0.4,0,0.8-0.1,1.1-0.2c1.4-0.4,2.8-1.1,4-1.9c0.5-0.3,1-0.7,1.4-1.2c0.4-0.5,0.6-1.1,0.6-1.8
		c-0.1-0.6-0.1-1.3-0.7-1.5"/>
	<path class="st3" d="M177.3,96.6c0,0,0.4,0,0.6,0.5c0.1,0.3,0.2,0.6,0.2,0.9c0.1,0.4,0.1,0.8-0.1,1.2c-0.4,1-1.1,1.8-2.1,2.3
		c-1.1,0.7-2.2,1.2-3.4,1.6c-0.6,0.3-1.3,0.4-2,0.4c-0.4,0-0.7-0.2-0.9-0.5c-0.2-0.3-0.3-0.6-0.3-1c0.1-1.1,0.7-2,1.6-2.7
		c0.6-0.4,1.2-0.7,1.8-1c0.2-0.1,0.5-0.2,0.7-0.2c0,0-0.2,0.2-0.6,0.4c-0.6,0.3-1.1,0.7-1.6,1.1c-0.3,0.3-0.6,0.6-0.9,1
		c-0.3,0.4-0.5,0.9-0.5,1.4c0,0.5,0.3,1,0.9,1c0,0,0,0,0,0c0.6,0,1.2-0.1,1.7-0.4c1.1-0.4,2.2-0.9,3.3-1.6c0.9-0.4,1.6-1.1,2-2
		c0.1-0.3,0.2-0.7,0.1-1.1c0-0.3,0-0.6-0.1-0.8C177.6,96.7,177.3,96.6,177.3,96.6z"/>
	<path class="st2" d="M179,93.6c-0.6-2.2-2.9-1.4-2.9-1.4c-1.6,0.7-3.1,1.6-4.5,2.6c-0.5,0.4-0.8,0.8-1,1.4
		c-0.2,0.5-0.1,1.2,0.2,1.6c0.4,0.4,1,0.7,1.6,0.6c0.6-0.1,1.1-0.2,1.6-0.5l3.6-1.6c1-0.4,1.7-1.5,1.5-2.6l0,0"/>
	<path class="st3" d="M179.1,93.8c0,0,0.2,0.3,0.1,0.9c-0.2,0.9-0.8,1.6-1.6,1.9l-3.4,1.5c-0.7,0.4-1.4,0.6-2.2,0.6
		c-0.4,0-0.9-0.1-1.2-0.4c-0.4-0.3-0.6-0.7-0.6-1.2c0-0.4,0.1-0.8,0.2-1.2c0.2-0.4,0.4-0.7,0.7-1c0.5-0.5,1.1-0.9,1.8-1.2
		c1.2-0.7,2.2-1.2,3.1-1.6l0,0c0.5-0.2,1.1-0.2,1.6,0c0.4,0.1,0.8,0.3,1,0.7c0.2,0.2,0.3,0.4,0.3,0.7c0,0.2,0.1,0.2,0,0.3
		c-0.2-0.3-0.3-0.6-0.5-0.8c-0.2-0.3-0.6-0.4-0.9-0.5c-0.5-0.1-1,0-1.4,0.1l0,0c-0.9,0.5-2,1-3.1,1.7c-0.6,0.3-1.1,0.7-1.6,1.2
		c-0.5,0.5-0.7,1.1-0.7,1.8c0.1,0.7,0.7,1.2,1.4,1.1c0.7,0,1.4-0.2,2-0.5l3.4-1.4c0.7-0.3,1.3-0.9,1.6-1.6
		C179,94.4,179.1,94.1,179.1,93.8z"/>
</g>
</svg>
